<?xml version="1.0" standalone="no"?>
<!DOCTYPE svg PUBLIC "-//W3C//DTD SVG 20010904//EN"
 "http://www.w3.org/TR/2001/REC-SVG-20010904/DTD/svg10.dtd">
<svg version="1.0" xmlns="http://www.w3.org/2000/svg"
 width="388.000000pt" height="388.000000pt" viewBox="0 0 388.000000 388.000000"
 preserveAspectRatio="xMidYMid meet">
<metadata>
Created by potrace 1.14, written by Peter Selinger 2001-2017
</metadata>
<g transform="translate(0.000000,388.000000) scale(0.100000,-0.100000)"
fill="#000000" stroke="none">
<path d="M0 1940 l0 -1940 1940 0 1940 0 0 1940 0 1940 -1940 0 -1940 0 0
-1940z m2082 1135 c198 -41 388 -196 466 -382 45 -105 52 -157 52 -363 0 -202
-7 -250 -48 -342 -55 -124 -179 -233 -315 -277 -20 -7 -35 -17 -32 -22 4 -5
94 -9 202 -9 l195 0 -5 -187 c-6 -224 -22 -289 -107 -412 -181 -264 -520 -362
-809 -235 -172 76 -314 243 -366 429 -25 90 -32 396 -11 493 36 171 136 298
293 373 51 24 92 47 93 50 0 3 -89 6 -197 6 l-198 0 1 169 c1 197 13 257 77
376 64 122 143 202 267 270 129 71 291 94 442 63z"/>
<path d="M1872 2615 c-16 -13 -35 -37 -41 -52 -8 -21 -11 -196 -9 -641 l3
-614 37 -34 c31 -28 46 -34 81 -34 59 0 108 33 125 85 19 57 13 1219 -6 1253
-35 62 -137 82 -190 37z"/>
</g>
</svg>
